<svg width="15" height="13" viewBox="0 0 15 13" fill="none" xmlns="http://www.w3.org/2000/svg">
<path d="M20.6303 13.4508H6.67324L7.37402 12.0234L19.0178 12.0023C19.4115 12.0023 19.749 11.7211 19.8193 11.332L21.4318 2.30625C21.474 2.06953 21.4107 1.82578 21.256 1.64062C21.1796 1.5495 21.0842 1.4761 20.9766 1.42551C20.8689 1.37492 20.7516 1.34835 20.6326 1.34766L5.82011 1.29844L5.69355 0.703125C5.61386 0.323437 5.27167 0.046875 4.88261 0.046875H1.26152C1.04209 0.046875 0.831654 0.134041 0.676497 0.289198C0.52134 0.444355 0.434174 0.654794 0.434174 0.874219C0.434174 1.09364 0.52134 1.30408 0.676497 1.45924C0.831654 1.6144 1.04209 1.70156 1.26152 1.70156H4.2123L4.76542 4.33125L6.12714 10.9242L4.37402 13.7859C4.28297 13.9088 4.22814 14.0547 4.21571 14.2071C4.20329 14.3596 4.23377 14.5124 4.3037 14.6484C4.44433 14.9273 4.72792 15.1031 5.04199 15.1031H6.51386C6.20008 15.5199 6.03059 16.0275 6.03105 16.5492C6.03105 17.8758 7.10917 18.9539 8.43574 18.9539C9.7623 18.9539 10.8404 17.8758 10.8404 16.5492C10.8404 16.0266 10.667 15.518 10.3576 15.1031H14.1334C13.8196 15.5199 13.6501 16.0275 13.6506 16.5492C13.6506 17.8758 14.7287 18.9539 16.0553 18.9539C17.3818 18.9539 18.46 17.8758 18.46 16.5492C18.46 16.0266 18.2865 15.518 17.9771 15.1031H20.6326C21.0873 15.1031 21.46 14.7328 21.46 14.2758C21.4586 14.0566 21.3706 13.8468 21.2152 13.6923C21.0597 13.5377 20.8495 13.4509 20.6303 13.4508V13.4508ZM6.16464 2.92969L19.66 2.97422L18.3381 10.3758L7.7373 10.3945L6.16464 2.92969ZM8.43574 17.2898C8.02792 17.2898 7.69511 16.957 7.69511 16.5492C7.69511 16.1414 8.02792 15.8086 8.43574 15.8086C8.84355 15.8086 9.17636 16.1414 9.17636 16.5492C9.17636 16.7456 9.09833 16.934 8.95944 17.0729C8.82054 17.2118 8.63216 17.2898 8.43574 17.2898V17.2898ZM16.0553 17.2898C15.6475 17.2898 15.3146 16.957 15.3146 16.5492C15.3146 16.1414 15.6475 15.8086 16.0553 15.8086C16.4631 15.8086 16.7959 16.1414 16.7959 16.5492C16.7959 16.7456 16.7179 16.934 16.579 17.0729C16.4401 17.2118 16.2517 17.2898 16.0553 17.2898V17.2898Z" fill="#8C8C8C"/>
</svg>
